<svg width="11" height="9" viewBox="0 0 11 9" fill="none" xmlns="http://www.w3.org/2000/svg">
<path fill-rule="evenodd" clip-rule="evenodd" d="M8.05538e-07 4.5C7.75024e-07 4.32953 0.0724256 4.16605 0.201342 4.04551C0.330259 3.92498 0.505108 3.85726 0.687424 3.85726L8.65191 3.85726L5.70011 1.09861C5.57103 0.977924 5.49852 0.814233 5.49852 0.643552C5.49852 0.472871 5.57103 0.309181 5.70011 0.188491C5.82919 0.0678019 6.00426 -1.02596e-06 6.18681 -1.05715e-06C6.36935 -1.08834e-06 6.54442 0.0678017 6.6735 0.188491L10.798 4.04494C10.8621 4.10464 10.9129 4.17557 10.9475 4.25366C10.9822 4.33174 11 4.41546 11 4.5C11 4.58454 10.9822 4.66825 10.9475 4.74634C10.9129 4.82443 10.8621 4.89535 10.798 4.95506L6.67351 8.81151C6.54443 8.9322 6.36936 9 6.18681 9C6.00426 9 5.82919 8.9322 5.70011 8.81151C5.57103 8.69082 5.49852 8.52713 5.49852 8.35645C5.49852 8.18576 5.57103 8.02207 5.70011 7.90138L8.65191 5.14274L0.687424 5.14274C0.505108 5.14274 0.330259 5.07502 0.201343 4.95449C0.0724257 4.83395 8.36053e-07 4.67047 8.05538e-07 4.5Z" fill="#262626"/>
</svg>
