<svg width="11" height="10" viewBox="0 0 11 10" fill="none" xmlns="http://www.w3.org/2000/svg">
<path fill-rule="evenodd" clip-rule="evenodd" d="M11 5C11 5.18941 10.9276 5.37105 10.7987 5.50498C10.6697 5.63892 10.4949 5.71416 10.3126 5.71416L2.34809 5.71416L5.29989 8.77932C5.42897 8.91342 5.50148 9.0953 5.50148 9.28494C5.50148 9.47459 5.42897 9.65646 5.29989 9.79056C5.17081 9.92466 4.99574 10 4.81319 10C4.63065 10 4.45558 9.92466 4.3265 9.79056L0.201956 5.50562C0.137939 5.43929 0.0871492 5.36048 0.0524937 5.27371C0.017839 5.18695 5.49281e-07 5.09394 5.41538e-07 5C5.33795e-07 4.90606 0.017839 4.81305 0.0524936 4.72629C0.0871492 4.63953 0.137939 4.56072 0.201956 4.49438L4.32649 0.209437C4.45557 0.0753371 4.63064 1.54425e-06 4.81319 1.52732e-06C4.99574 1.5104e-06 5.17081 0.075337 5.29989 0.209437C5.42897 0.343536 5.50148 0.525414 5.50148 0.71506C5.50148 0.904705 5.42897 1.08658 5.29989 1.22068L2.34809 4.28584L10.3126 4.28584C10.4949 4.28584 10.6697 4.36108 10.7987 4.49501C10.9276 4.62894 11 4.81059 11 5Z" fill="#262626"/>
</svg>
